<svg width="100%" height="100%" viewBox="0 0 399 301" fill="none" xmlns="http://www.w3.org/2000/svg">
<path d="M353.536 133.115C354.008 168.563 285.512 198.215 200.547 199.346C115.581 200.476 46.3212 172.656 45.8496 137.209C45.3779 101.761 113.874 72.1085 198.839 70.9781C283.804 69.8476 353.064 97.6673 353.536 133.115Z" fill="#01A447"/>
<path fill-rule="evenodd" clip-rule="evenodd" d="M40.2802 137.282C39.7689 98.8569 110.72 66.7486 198.768 65.5771C286.801 64.4059 358.596 94.615 359.107 133.041C359.618 171.466 288.667 203.574 200.619 204.746C112.572 205.917 40.7914 175.708 40.2802 137.282ZM310.66 87.0658C280.728 74.4695 241.006 67.8432 198.805 68.4046C156.605 68.9661 117.073 76.6468 87.4869 90.035C58.6313 103.088 42.8763 119.856 43.1076 137.245C43.339 154.634 59.5345 170.976 88.7272 183.257C118.659 195.853 158.382 202.48 200.582 201.918C242.782 201.357 282.314 193.676 311.9 180.288C340.756 167.235 356.511 150.467 356.279 133.078C356.048 115.689 339.838 99.3469 310.66 87.0658Z" fill="#01A447"/>
<path fill-rule="evenodd" clip-rule="evenodd" d="M198.805 68.4046C241.006 67.8432 280.728 74.4695 310.66 87.0658C339.838 99.3469 356.048 115.689 356.279 133.078C356.511 150.467 340.756 167.235 311.9 180.288C282.314 193.676 242.782 201.357 200.582 201.918C158.382 202.48 118.659 195.853 88.7272 183.257C59.5345 170.976 43.339 154.634 43.1076 137.245C42.8763 119.856 58.6313 103.088 87.4869 90.035C117.073 76.6468 156.605 68.9661 198.805 68.4046ZM353.536 133.115C354.008 168.563 285.512 198.215 200.547 199.346C115.581 200.476 46.3212 172.656 45.8496 137.209C45.3779 101.761 113.874 72.1085 198.839 70.9781C283.804 69.8476 353.064 97.6673 353.536 133.115Z" fill="black"/>
<path d="M198.754 64.5772C154.626 65.1643 114.735 73.5027 85.9021 86.5484C71.4874 93.0706 59.792 100.79 51.7191 109.346C43.6416 117.907 39.148 127.358 39.2802 137.296C39.4125 147.234 44.1559 156.561 52.4583 164.904C60.7559 173.243 72.6526 180.648 87.2357 186.785C116.405 199.059 156.504 206.333 200.633 205.746C244.761 205.159 284.653 196.82 313.485 183.774C327.9 177.252 339.595 169.533 347.668 160.977C355.745 152.415 360.239 142.965 360.107 133.027C359.975 123.089 355.23 113.762 346.927 105.418C338.628 97.0799 326.73 89.6747 312.146 83.5383C282.975 71.2643 242.876 63.9902 198.754 64.5772Z" stroke="white" stroke-width="2"/>
<path d="M138.542 170.901L136.547 181.448L134.293 181.025L136.274 170.493L133.198 169.912L133.581 167.885L142.171 169.51L141.788 171.537L138.528 170.916L138.542 170.901Z" fill="black"/>
<path d="M143.337 182.614L141.268 182.302L143.258 169.239L145.326 169.551L144.56 174.623C145.214 173.837 146.213 173.498 147.46 173.679C149.613 174.004 150.639 175.645 150.315 177.813L149.443 183.551L147.375 183.239L148.168 178.053C148.403 176.523 147.969 175.836 146.496 175.615C144.994 175.381 144.365 175.912 144.13 177.442L143.337 182.628L143.337 182.614Z" fill="black"/>
<path d="M153.495 184.036L151.413 183.781L152.548 174.504L154.63 174.759L154.477 175.963C155.061 175.234 155.904 174.869 156.966 174.996C157.165 175.022 157.377 175.048 157.576 175.087L157.32 177.127C157.093 177.073 156.867 177.048 156.654 177.023C154.94 176.805 154.297 177.365 154.106 178.937L153.481 184.022L153.495 184.036Z" fill="black"/>
<path d="M157.37 179.856C157.643 177.024 159.556 175.203 162.359 175.477C165.163 175.75 166.676 177.908 166.403 180.754C166.129 183.585 164.102 185.323 161.426 185.062C158.75 184.8 157.096 182.701 157.384 179.87L157.37 179.856ZM164.222 180.514C164.396 178.702 163.689 177.679 162.146 177.53C160.617 177.38 159.709 178.241 159.536 180.053C159.361 181.823 160.082 182.846 161.611 183.009C163.154 183.158 164.048 182.298 164.222 180.514Z" fill="black"/>
<path d="M173.752 184.657C173.169 185.471 172.199 185.922 170.94 185.84C168.76 185.699 167.594 184.131 167.749 181.937L168.139 176.149L170.233 176.291L169.879 181.527C169.772 183.07 170.275 183.714 171.747 183.821C173.276 183.928 173.848 183.341 173.94 181.798L174.295 176.562L176.389 176.704L175.764 186.03L173.67 185.888L173.752 184.657Z" fill="black"/>
<path d="M177.209 181.075C177.323 178.005 179.568 176.702 181.648 176.788C182.851 176.828 183.805 177.339 184.384 178.363L184.437 177.034L186.531 177.119L186.206 185.664C186.113 188.196 184.123 189.566 181.491 189.459C180.049 189.408 178.59 189.243 177.781 189.028L177.853 186.977C179.115 187.229 180.149 187.356 181.563 187.408C182.921 187.461 184.058 186.809 184.112 185.578L184.166 184.319C183.542 185.247 182.544 185.67 181.327 185.615C179.177 185.531 177.108 184.145 177.223 181.089L177.209 181.075ZM184.268 181.32C184.332 179.764 183.189 178.888 181.803 178.836C180.473 178.783 179.352 179.576 179.302 181.132C179.252 182.66 180.295 183.508 181.625 183.561C183.012 183.613 184.203 182.848 184.268 181.32Z" fill="black"/>
<path d="M189.981 186.506L187.888 186.492L188.009 173.269L190.102 173.284L190.057 178.403C190.597 177.534 191.538 177.054 192.797 177.066C194.975 177.094 196.224 178.562 196.211 180.754L196.161 186.552L194.068 186.537L194.111 181.29C194.133 179.749 193.602 179.134 192.117 179.111C190.59 179.103 190.046 179.704 190.038 181.246L189.995 186.492L189.981 186.506Z" fill="black"/>
<path d="M206.393 175.655L206.691 186.369L204.401 186.427L204.103 175.713L200.979 175.797L200.924 173.734L209.659 173.49L209.715 175.554L206.393 175.641L206.393 175.655Z" fill="black"/>
<path d="M213.248 186.111L211.157 186.223L210.444 173.012L212.535 172.899L212.815 178.014C213.298 177.117 214.21 176.568 215.468 176.508C217.644 176.395 218.992 177.791 219.105 179.981L219.423 185.774L217.332 185.887L217.05 180.645C216.973 179.104 216.399 178.518 214.916 178.594C213.39 178.671 212.889 179.314 212.98 180.854L213.262 186.096L213.248 186.111Z" fill="black"/>
<path d="M220.264 180.955C220.012 177.918 221.727 176.113 224.312 175.895C226.784 175.693 228.746 177.618 228.9 180.684L222.782 182.038C223.304 183.035 224.327 183.446 225.584 183.316C226.643 183.231 227.687 183.048 228.745 182.864L228.914 184.912C227.814 185.096 226.699 185.295 225.555 185.381C222.659 185.617 220.516 183.949 220.264 180.955ZM222.419 180.318L226.48 179.415C226.226 178.457 225.497 177.802 224.395 177.902C223.435 177.985 222.468 178.691 222.434 180.332L222.419 180.318Z" fill="black"/>
<path d="M237.331 184.194C236.442 184.305 235.155 184.322 234.505 184.33L234.266 182.34C235.298 182.326 236.132 182.287 236.993 182.19C238.617 181.999 239.06 181.258 238.949 180.383C238.838 179.522 238.322 178.963 237.016 178.542C234.488 177.756 233.457 176.794 233.251 175.114C233.028 173.222 234.306 171.494 237.017 171.175C237.835 171.079 238.994 171.05 239.391 171.087L239.629 173.049C238.851 173.045 238.017 173.042 237.339 173.122C235.885 173.297 235.371 173.983 235.466 174.745C235.546 175.437 236.06 175.826 237.608 176.342C240.051 177.144 240.944 178.348 241.135 179.944C241.404 182.118 240.056 183.861 237.317 184.194L237.331 184.194Z" fill="black"/>
<path d="M242.358 174.086L245.102 180.554L246.45 173.466L247.551 173.296L250.987 179.698L251.657 172.662L253.872 172.321L252.841 181.936L250.188 182.353L247.663 177.522L246.689 182.894L244.05 183.297L240.157 174.455L242.386 174.114L242.358 174.086Z" fill="black"/>
<path d="M256.056 168.446L256.436 170.448L254.377 170.829L253.997 168.827L256.056 168.446ZM256.665 171.69L258.371 180.872L256.311 181.253L254.606 172.071L256.665 171.69Z" fill="black"/>
<path d="M262.333 180.099L260.274 180.522L258.384 171.37L260.443 170.947L260.685 172.132C261.013 171.251 261.683 170.634 262.741 170.408C262.938 170.362 263.15 170.317 263.347 170.3L263.77 172.317C263.53 172.348 263.319 172.394 263.107 172.439C261.415 172.787 260.987 173.528 261.304 175.079L262.347 180.099L262.333 180.099Z" fill="black"/>
<path d="M265.916 165.784L268.859 178.669L266.815 179.135L263.872 166.25L265.916 165.784Z" fill="black"/>
<path d="M149.535 98.9242C148.66 99.0631 147.36 99.1228 146.71 99.1597L146.401 97.1842C147.433 97.1281 148.266 97.0746 149.127 96.9359C150.75 96.688 151.164 95.9473 151.025 95.0583C150.886 94.1976 150.356 93.6532 149.022 93.2892C146.467 92.5879 145.409 91.6687 145.146 89.9754C144.852 88.0987 146.087 86.329 148.782 85.9113C149.601 85.7873 150.76 85.7295 151.156 85.7384L151.465 87.6997C150.687 87.71 149.853 87.7494 149.19 87.8572C147.737 88.0745 147.251 88.7738 147.36 89.5359C147.468 90.2273 147.982 90.6023 149.558 91.0621C152.028 91.7786 152.963 92.9681 153.196 94.5487C153.536 96.7217 152.245 98.5063 149.521 98.9244L149.535 98.9242Z" fill="black"/>
<path d="M154.027 93.3342C153.648 90.3133 155.291 88.425 157.861 88.108C160.317 87.8067 162.363 89.6318 162.644 92.6964L156.586 94.3183C157.15 95.2864 158.187 95.6544 159.443 95.4821C160.502 95.3549 161.531 95.115 162.574 94.889L162.828 96.9359C161.742 97.1766 160.629 97.4177 159.499 97.56C156.605 97.9237 154.393 96.3412 154.028 93.3625L154.027 93.3342ZM156.153 92.6131L160.168 91.5275C159.873 90.584 159.115 89.9578 158.014 90.0997C157.054 90.2256 156.131 90.9732 156.153 92.6131Z" fill="black"/>
<path d="M163.756 92.1324C163.462 89.0963 165.162 87.2638 167.732 87.0175C170.19 86.7727 172.18 88.6692 172.377 91.735L166.273 93.1736C166.809 94.1563 167.833 94.5527 169.089 94.4087C170.148 94.3098 171.192 94.1121 172.236 93.9002L172.433 95.9479C171.332 96.1464 170.232 96.359 169.088 96.4732C166.193 96.7521 164.022 95.1124 163.742 92.1185L163.756 92.1324ZM165.897 91.4677L169.942 90.4948C169.675 89.5509 168.931 88.8963 167.83 89.0099C166.869 89.1075 165.917 89.8272 165.897 91.4677Z" fill="black"/>
<path d="M182.418 84.6423L183.041 95.3521L180.752 95.4815L180.129 84.7717L177.006 84.9547L176.88 82.8919L185.611 82.3799L185.738 84.4426L182.417 84.6282L182.418 84.6423Z" fill="black"/>
<path d="M189.64 95.0393L187.548 95.1096L187.118 81.8945L189.21 81.8242L189.377 86.9406C189.888 86.0572 190.8 85.5219 192.058 85.491C194.235 85.4196 195.554 86.8443 195.626 89.035L195.816 94.8299L193.724 94.9001L193.556 89.6565C193.507 88.1159 192.947 87.5153 191.463 87.5633C189.937 87.6119 189.422 88.2409 189.471 89.7815L189.64 95.0252L189.64 95.0393Z" fill="black"/>
<path d="M197.085 90.0477C197.058 87.008 198.903 85.3291 201.504 85.3086C203.978 85.2757 205.787 87.3585 205.715 90.4137L199.505 91.3164C199.943 92.3428 200.94 92.8244 202.212 92.7934C203.272 92.7793 204.331 92.6803 205.39 92.5673L205.418 94.6313C204.302 94.7451 203.172 94.845 202.027 94.8602C199.115 94.8849 197.111 93.0592 197.085 90.0477ZM199.27 89.5803L203.377 88.9742C203.194 88.001 202.506 87.3032 201.403 87.3037C200.428 87.3167 199.432 87.9521 199.27 89.5803Z" fill="black"/>
<path d="M213.65 94.9613C212.759 94.9307 211.47 94.764 210.818 94.6879L210.877 92.6934C211.896 92.8212 212.732 92.9232 213.609 92.9398C215.25 92.9887 215.778 92.3312 215.809 91.44C215.84 90.5629 215.393 89.9467 214.169 89.3408C211.778 88.1849 210.901 87.0936 210.949 85.3962C210.995 83.5008 212.53 81.9674 215.26 82.0442C216.094 82.0614 217.242 82.2158 217.625 82.3097L217.566 84.2901C216.801 84.173 215.965 84.0427 215.3 84.0374C213.829 84.0004 213.229 84.6023 213.197 85.3663C213.178 86.0594 213.623 86.5201 215.089 87.2641C217.395 88.4212 218.091 89.7411 218.056 91.3394C218 93.5318 216.408 95.0518 213.664 94.9893L213.65 94.9613Z" fill="black"/>
<path d="M221.872 85.8286L224.659 85.9612L224.559 88.0128L221.772 87.8802L221.608 91.5022C221.541 92.804 221.885 93.1953 223.045 93.2506C223.54 93.2723 223.936 93.2388 224.331 93.2052L224.245 95.2284C223.85 95.2902 222.945 95.3022 222.634 95.2922C220.512 95.1932 219.38 94.0488 219.467 92.1529L219.875 83.4373L221.969 83.5367L221.858 85.8288L221.872 85.8286Z" fill="black"/>
<path d="M225.144 90.6788C225.346 87.834 227.188 85.9572 229.99 86.1603C232.793 86.3634 234.376 88.4633 234.174 91.3081C233.971 94.1529 232.015 95.9323 229.326 95.756C226.637 95.5655 224.942 93.5378 225.13 90.6931L225.144 90.6788ZM232.008 91.1248C232.139 89.3132 231.39 88.305 229.848 88.1983C228.305 88.0916 227.44 88.9798 227.309 90.8056C227.191 92.5887 227.926 93.5829 229.468 93.6896C231.011 93.7964 231.876 92.9082 232.008 91.1248Z" fill="black"/>
<path d="M237.349 96.2559L235.268 96.0573L236.134 86.7559L238.23 86.9542L238.118 88.1576C238.688 87.4148 239.517 87.0219 240.579 87.1209C240.777 87.1324 240.989 87.1579 241.188 87.1977L241.003 89.2504C240.762 89.2112 240.55 89.1858 240.338 89.1744C238.625 89.0134 237.996 89.5874 237.847 91.173L237.378 96.2696L237.349 96.2559Z" fill="black"/>
<path d="M242.956 99.8443L244.571 96.8393L241.855 87.2603L244.121 87.527L245.963 94.1907L249.22 88.1379L251.415 88.4057L245.151 100.112L242.97 99.8582L242.956 99.8443Z" fill="black"/>
<mask id="path-29-inside-1_21_868" fill="white">
<path d="M121.049 139.723C121 136.081 121.601 133.067 122.899 130.585C124.149 128.107 125.895 126.26 128.143 125C130.343 123.741 132.847 123.066 135.603 123.029C138.901 122.985 141.572 123.74 143.612 125.239C145.653 126.787 146.719 129.186 146.763 132.488C146.793 134.752 146.175 136.535 144.962 137.83C143.75 139.177 142.28 139.886 140.558 140.004C137.751 140.19 136.383 140.946 136.401 142.324C136.418 143.606 137.46 144.182 139.628 144.153C140.613 144.14 141.547 144.127 142.532 144.066C143.517 144.005 144.502 143.94 145.483 143.831L145.626 154.613C143.414 154.94 141.1 155.119 138.736 155.15C133.122 155.225 128.82 153.951 125.73 151.235C122.641 148.567 121.111 144.744 121.044 139.723L121.049 139.723ZM133.876 133.889C133.187 133.899 132.597 134.151 132.114 134.554C131.627 135.006 131.438 135.549 131.446 136.19C131.455 136.88 131.659 137.418 132.11 137.857C132.561 138.296 133.152 138.484 133.889 138.475C134.578 138.465 135.169 138.261 135.604 137.81C136.043 137.36 136.28 136.815 136.271 136.126C136.262 135.485 136.011 134.947 135.56 134.508C135.11 134.122 134.565 133.88 133.876 133.889ZM153.891 154.46C153.837 153.968 153.829 153.379 153.819 152.589L153.699 143.577C153.667 141.165 153.681 138.652 153.698 135.99C153.711 133.381 153.73 130.82 153.792 128.306C153.807 125.845 153.83 123.576 153.899 121.556C153.973 119.583 154.048 118.007 154.132 116.823C156.544 116.743 158.467 116.665 159.893 116.598C161.319 116.579 162.649 116.514 163.831 116.498C167.574 116.448 170.633 116.9 173.058 117.802C175.435 118.756 177.227 120.307 178.392 122.556C179.556 124.805 180.186 127.903 180.238 131.842C180.291 135.781 179.294 138.603 177.256 140.794C175.217 143.038 172.425 144.358 168.836 144.798C167.757 144.961 167.02 145.315 166.586 145.862C166.149 146.457 165.963 147.201 165.974 148.086C165.983 148.728 165.993 149.465 166.051 150.254C166.11 151.043 166.173 151.827 166.23 152.516C166.288 153.252 166.348 153.845 166.402 154.285L153.891 154.451L153.891 154.46ZM166.688 135.128C167.525 135.117 168.162 134.764 168.646 134.068C169.081 133.373 169.309 132.14 169.286 130.417C169.269 129.086 169.009 127.96 168.505 127.077C168 126.198 167.353 125.761 166.568 125.772C164.797 125.795 163.928 127.382 163.969 130.487C163.992 132.21 164.205 133.438 164.707 134.121C165.161 134.804 165.802 135.14 166.692 135.128L166.688 135.128ZM188.928 154.683C187.253 154.705 185.769 154.332 184.576 153.559C183.335 152.785 182.38 151.472 181.714 149.609C181 147.747 180.668 145.142 180.624 141.84C180.592 139.38 180.56 136.964 180.576 134.599C180.593 132.234 180.616 130.065 180.638 128.097C180.612 126.126 180.638 124.502 180.62 123.172L191.752 123.024L191.776 124.795C191.789 125.781 191.756 126.911 191.774 128.242C191.791 129.572 191.762 130.999 191.782 132.478L191.874 139.422C191.901 141.394 192.502 142.319 193.784 142.302C195.067 142.285 195.691 141.339 195.665 139.372L195.571 132.279C195.552 130.901 195.487 129.571 195.47 128.293L195.399 122.975L206.478 122.828C206.56 125.34 206.652 128.292 206.744 131.642C206.789 134.992 206.884 138.585 206.987 142.375C207.038 146.218 207.137 150.008 207.187 153.751L198.964 153.86C198.846 152.531 198.637 151.548 198.432 150.914C198.228 150.327 197.778 149.984 197.189 149.992C196.696 149.999 196.207 150.25 195.72 150.701C195.233 151.2 194.7 151.749 194.114 152.35C193.533 152.946 192.799 153.502 191.967 153.953C191.137 154.457 190.105 154.667 188.923 154.683L188.928 154.683ZM216.323 154.122C213.863 154.155 211.875 152.999 210.365 150.654C208.855 148.31 208.07 144.725 208.005 139.849C207.93 134.187 209.006 129.836 211.229 126.752C213.453 123.717 216.783 122.146 221.167 122.087C221.856 122.078 222.299 121.924 222.587 121.623C222.876 121.323 223.02 120.732 223.009 119.846L222.984 118.023C222.974 117.234 222.916 116.497 222.906 115.76L222.887 114.281L232.836 114.149C232.951 115.229 233.019 116.707 233.138 118.481C233.263 120.303 233.338 122.322 233.463 124.537C233.541 126.8 233.624 129.116 233.753 131.527C233.833 133.986 233.917 136.35 233.996 138.713C234.076 141.077 234.157 143.244 234.185 145.312C234.212 147.379 234.284 149.154 234.303 150.628L234.34 153.385L226.262 153.493C226.138 151.771 225.979 150.591 225.769 149.904C225.564 149.266 225.167 148.926 224.574 148.934C224.033 148.941 223.496 149.245 222.957 149.745C222.423 150.245 221.837 150.842 221.21 151.54C220.582 152.237 219.848 152.841 219.065 153.34C218.282 153.843 217.352 154.1 216.318 154.114L216.323 154.122ZM220.85 142.535C221.932 142.521 222.668 142.119 223.098 141.323C223.532 140.528 223.76 139.294 223.737 137.523C223.692 134.125 222.683 132.416 220.764 132.441C218.744 132.468 217.781 134.204 217.826 137.602C217.85 139.373 218.063 140.605 218.566 141.384C219.069 142.166 219.812 142.549 220.846 142.536L220.85 142.535ZM243.341 153.763C240.881 153.795 238.894 152.64 237.383 150.295C235.873 147.95 235.088 144.366 235.023 139.489C234.948 133.827 236.024 129.476 238.248 126.393C240.472 123.357 243.801 121.786 248.185 121.728C248.874 121.719 249.317 121.564 249.606 121.264C249.894 120.963 250.039 120.372 250.027 119.487L250.003 117.664C249.992 116.874 249.934 116.138 249.925 115.4L249.905 113.922L259.855 113.789C259.969 114.87 260.037 116.348 260.157 118.122C260.281 119.944 260.356 121.963 260.482 124.177C260.56 126.441 260.643 128.756 260.771 131.167C260.852 133.627 260.935 135.99 261.015 138.354C261.094 140.717 261.175 142.885 261.203 144.952C261.23 147.02 261.302 148.794 261.322 150.269L261.358 153.026L253.28 153.133C253.157 151.411 252.997 150.231 252.787 149.545C252.582 148.906 252.185 148.567 251.592 148.575C251.051 148.582 250.514 148.886 249.975 149.386C249.441 149.886 248.856 150.483 248.228 151.18C247.596 151.878 246.867 152.481 246.084 152.98C245.301 153.484 244.37 153.74 243.337 153.754L243.341 153.763ZM247.868 142.176C248.95 142.162 249.686 141.759 250.116 140.964C250.551 140.168 250.779 138.935 250.755 137.164C250.71 133.766 249.701 132.056 247.782 132.082C245.762 132.109 244.799 133.845 244.845 137.243C244.868 139.014 245.081 140.245 245.584 141.024C246.088 141.807 246.83 142.19 247.864 142.176L247.868 142.176ZM262.815 153.011C262.812 152.766 262.759 152.422 262.754 152.025L262.738 150.795C262.72 149.417 262.697 147.694 262.717 145.626C262.69 143.606 262.709 141.438 262.779 139.124C262.797 136.86 262.819 134.591 262.885 132.326C262.956 130.108 263.025 128.088 263.101 126.315C263.178 124.543 263.255 123.111 263.342 122.076L273.435 121.942C273.549 122.974 273.664 124.399 273.788 126.173C273.912 127.943 273.987 129.962 274.113 132.176C274.243 134.439 274.321 136.706 274.447 138.969C274.526 141.285 274.607 143.448 274.682 145.467C274.71 147.534 274.78 149.256 274.799 150.635C274.805 151.08 274.762 151.473 274.767 151.866L274.78 152.851L262.815 153.011ZM268.243 120.283C266.42 120.307 265.085 119.98 264.19 119.303C263.296 118.625 262.837 117.598 262.82 116.315C262.803 115.033 263.234 113.993 264.109 113.196C264.985 112.447 266.31 112.032 268.133 112.008C270.053 111.983 271.436 112.357 272.284 113.087C273.084 113.866 273.538 114.894 273.555 116.172C273.572 117.45 273.141 118.494 272.365 119.194C271.537 119.894 270.163 120.257 268.243 120.283ZM276.028 152.835C275.978 149.092 275.928 145.302 275.924 141.458C275.874 137.667 275.874 134.073 275.882 130.722C275.885 127.371 275.898 124.417 275.913 121.904L283.843 121.799C283.964 123.324 284.121 124.356 284.377 124.894C284.629 125.431 285.029 125.675 285.618 125.667C286.111 125.66 286.553 125.458 287.035 124.959C287.522 124.507 288.056 123.959 288.641 123.362C289.222 122.765 289.957 122.21 290.787 121.706C291.619 121.25 292.65 120.992 293.88 120.976C295.555 120.954 297.039 121.326 298.231 122.1C299.424 122.874 300.376 124.24 301.094 126.102C301.76 127.965 302.14 130.569 302.183 133.823C302.216 136.335 302.2 138.748 302.232 141.112C302.215 143.477 302.191 145.594 302.217 147.565C302.196 149.537 302.217 151.16 302.235 152.491L291.055 152.639L290.937 136.237C290.912 134.317 290.257 133.34 289.027 133.357C287.797 133.373 287.121 134.368 287.147 136.287L287.413 152.688L276.037 152.839L276.028 152.835ZM311.154 155.914C308.594 155.948 306.616 155.482 305.223 154.418C303.831 153.403 303.122 151.933 303.096 150.014C303.055 146.913 304.303 144.283 306.835 142.133C307.029 141.934 307.175 141.784 307.273 141.586C307.319 141.437 307.369 141.288 307.367 141.092C307.365 140.992 307.315 140.848 307.213 140.701C307.111 140.602 307.061 140.459 306.964 140.312C305.916 139.292 305.11 138.073 304.503 136.702C303.896 135.331 303.627 133.808 303.605 132.181C303.576 129.965 304.043 128.039 305.103 126.398C306.115 124.757 307.577 123.459 309.484 122.548C311.392 121.637 313.602 121.163 316.162 121.129C317.297 121.114 318.183 121.15 318.773 121.242C319.363 121.335 319.909 121.376 320.45 121.368C321.039 121.361 321.675 120.959 322.258 120.162C322.836 119.365 323.709 118.075 324.815 116.284L330.442 120.838C329.717 121.734 329.038 122.484 328.406 123.182C327.774 123.88 327.484 124.425 327.49 124.87C327.495 125.262 327.6 125.605 327.849 125.947C328.098 126.288 328.4 126.729 328.704 127.218C329.007 127.707 329.308 128.392 329.567 129.179C329.775 130.014 329.937 131.045 329.954 132.328C329.995 135.429 328.995 137.955 326.953 139.955C324.912 141.954 321.675 142.93 317.243 142.989C315.271 143.016 313.948 143.23 313.162 143.537C312.377 143.892 311.991 144.39 311.999 144.979C312.009 145.716 312.554 146.053 313.641 146.039C314.229 146.031 315.215 146.018 316.592 145.899C317.921 145.781 319.399 145.666 321.068 145.543C322.738 145.421 324.364 145.351 325.99 145.233C327.615 145.111 329.041 145.044 330.271 145.028L330.413 155.667L311.159 155.923L311.154 155.914ZM317.111 129.829C316.422 129.838 315.832 130.09 315.349 130.493C314.862 130.945 314.673 131.488 314.682 132.13C314.691 132.819 314.894 133.357 315.345 133.796C315.796 134.235 316.387 134.424 317.125 134.414C317.814 134.405 318.404 134.2 318.839 133.75C319.278 133.299 319.515 132.755 319.506 132.065C319.497 131.424 319.246 130.887 318.795 130.448C318.345 130.061 317.801 129.819 317.111 129.829Z"/>
</mask>
<path d="M121.049 139.723C121 136.081 121.601 133.067 122.899 130.585C124.149 128.107 125.895 126.26 128.143 125C130.343 123.741 132.847 123.066 135.603 123.029C138.901 122.985 141.572 123.74 143.612 125.239C145.653 126.787 146.719 129.186 146.763 132.488C146.793 134.752 146.175 136.535 144.962 137.83C143.75 139.177 142.28 139.886 140.558 140.004C137.751 140.19 136.383 140.946 136.401 142.324C136.418 143.606 137.46 144.182 139.628 144.153C140.613 144.14 141.547 144.127 142.532 144.066C143.517 144.005 144.502 143.94 145.483 143.831L145.626 154.613C143.414 154.94 141.1 155.119 138.736 155.15C133.122 155.225 128.82 153.951 125.73 151.235C122.641 148.567 121.111 144.744 121.044 139.723L121.049 139.723ZM133.876 133.889C133.187 133.899 132.597 134.151 132.114 134.554C131.627 135.006 131.438 135.549 131.446 136.19C131.455 136.88 131.659 137.418 132.11 137.857C132.561 138.296 133.152 138.484 133.889 138.475C134.578 138.465 135.169 138.261 135.604 137.81C136.043 137.36 136.28 136.815 136.271 136.126C136.262 135.485 136.011 134.947 135.56 134.508C135.11 134.122 134.565 133.88 133.876 133.889ZM153.891 154.46C153.837 153.968 153.829 153.379 153.819 152.589L153.699 143.577C153.667 141.165 153.681 138.652 153.698 135.99C153.711 133.381 153.73 130.82 153.792 128.306C153.807 125.845 153.83 123.576 153.899 121.556C153.973 119.583 154.048 118.007 154.132 116.823C156.544 116.743 158.467 116.665 159.893 116.598C161.319 116.579 162.649 116.514 163.831 116.498C167.574 116.448 170.633 116.9 173.058 117.802C175.435 118.756 177.227 120.307 178.392 122.556C179.556 124.805 180.186 127.903 180.238 131.842C180.291 135.781 179.294 138.603 177.256 140.794C175.217 143.038 172.425 144.358 168.836 144.798C167.757 144.961 167.02 145.315 166.586 145.862C166.149 146.457 165.963 147.201 165.974 148.086C165.983 148.728 165.993 149.465 166.051 150.254C166.11 151.043 166.173 151.827 166.23 152.516C166.288 153.252 166.348 153.845 166.402 154.285L153.891 154.451L153.891 154.46ZM166.688 135.128C167.525 135.117 168.162 134.764 168.646 134.068C169.081 133.373 169.309 132.14 169.286 130.417C169.269 129.086 169.009 127.96 168.505 127.077C168 126.198 167.353 125.761 166.568 125.772C164.797 125.795 163.928 127.382 163.969 130.487C163.992 132.21 164.205 133.438 164.707 134.121C165.161 134.804 165.802 135.14 166.692 135.128L166.688 135.128ZM188.928 154.683C187.253 154.705 185.769 154.332 184.576 153.559C183.335 152.785 182.38 151.472 181.714 149.609C181 147.747 180.668 145.142 180.624 141.84C180.592 139.38 180.56 136.964 180.576 134.599C180.593 132.234 180.616 130.065 180.638 128.097C180.612 126.126 180.638 124.502 180.62 123.172L191.752 123.024L191.776 124.795C191.789 125.781 191.756 126.911 191.774 128.242C191.791 129.572 191.762 130.999 191.782 132.478L191.874 139.422C191.901 141.394 192.502 142.319 193.784 142.302C195.067 142.285 195.691 141.339 195.665 139.372L195.571 132.279C195.552 130.901 195.487 129.571 195.47 128.293L195.399 122.975L206.478 122.828C206.56 125.34 206.652 128.292 206.744 131.642C206.789 134.992 206.884 138.585 206.987 142.375C207.038 146.218 207.137 150.008 207.187 153.751L198.964 153.86C198.846 152.531 198.637 151.548 198.432 150.914C198.228 150.327 197.778 149.984 197.189 149.992C196.696 149.999 196.207 150.25 195.72 150.701C195.233 151.2 194.7 151.749 194.114 152.35C193.533 152.946 192.799 153.502 191.967 153.953C191.137 154.457 190.105 154.667 188.923 154.683L188.928 154.683ZM216.323 154.122C213.863 154.155 211.875 152.999 210.365 150.654C208.855 148.31 208.07 144.725 208.005 139.849C207.93 134.187 209.006 129.836 211.229 126.752C213.453 123.717 216.783 122.146 221.167 122.087C221.856 122.078 222.299 121.924 222.587 121.623C222.876 121.323 223.02 120.732 223.009 119.846L222.984 118.023C222.974 117.234 222.916 116.497 222.906 115.76L222.887 114.281L232.836 114.149C232.951 115.229 233.019 116.707 233.138 118.481C233.263 120.303 233.338 122.322 233.463 124.537C233.541 126.8 233.624 129.116 233.753 131.527C233.833 133.986 233.917 136.35 233.996 138.713C234.076 141.077 234.157 143.244 234.185 145.312C234.212 147.379 234.284 149.154 234.303 150.628L234.34 153.385L226.262 153.493C226.138 151.771 225.979 150.591 225.769 149.904C225.564 149.266 225.167 148.926 224.574 148.934C224.033 148.941 223.496 149.245 222.957 149.745C222.423 150.245 221.837 150.842 221.21 151.54C220.582 152.237 219.848 152.841 219.065 153.34C218.282 153.843 217.352 154.1 216.318 154.114L216.323 154.122ZM220.85 142.535C221.932 142.521 222.668 142.119 223.098 141.323C223.532 140.528 223.76 139.294 223.737 137.523C223.692 134.125 222.683 132.416 220.764 132.441C218.744 132.468 217.781 134.204 217.826 137.602C217.85 139.373 218.063 140.605 218.566 141.384C219.069 142.166 219.812 142.549 220.846 142.536L220.85 142.535ZM243.341 153.763C240.881 153.795 238.894 152.64 237.383 150.295C235.873 147.95 235.088 144.366 235.023 139.489C234.948 133.827 236.024 129.476 238.248 126.393C240.472 123.357 243.801 121.786 248.185 121.728C248.874 121.719 249.317 121.564 249.606 121.264C249.894 120.963 250.039 120.372 250.027 119.487L250.003 117.664C249.992 116.874 249.934 116.138 249.925 115.4L249.905 113.922L259.855 113.789C259.969 114.87 260.037 116.348 260.157 118.122C260.281 119.944 260.356 121.963 260.482 124.177C260.56 126.441 260.643 128.756 260.771 131.167C260.852 133.627 260.935 135.99 261.015 138.354C261.094 140.717 261.175 142.885 261.203 144.952C261.23 147.02 261.302 148.794 261.322 150.269L261.358 153.026L253.28 153.133C253.157 151.411 252.997 150.231 252.787 149.545C252.582 148.906 252.185 148.567 251.592 148.575C251.051 148.582 250.514 148.886 249.975 149.386C249.441 149.886 248.856 150.483 248.228 151.18C247.596 151.878 246.867 152.481 246.084 152.98C245.301 153.484 244.37 153.74 243.337 153.754L243.341 153.763ZM247.868 142.176C248.95 142.162 249.686 141.759 250.116 140.964C250.551 140.168 250.779 138.935 250.755 137.164C250.71 133.766 249.701 132.056 247.782 132.082C245.762 132.109 244.799 133.845 244.845 137.243C244.868 139.014 245.081 140.245 245.584 141.024C246.088 141.807 246.83 142.19 247.864 142.176L247.868 142.176ZM262.815 153.011C262.812 152.766 262.759 152.422 262.754 152.025L262.738 150.795C262.72 149.417 262.697 147.694 262.717 145.626C262.69 143.606 262.709 141.438 262.779 139.124C262.797 136.86 262.819 134.591 262.885 132.326C262.956 130.108 263.025 128.088 263.101 126.315C263.178 124.543 263.255 123.111 263.342 122.076L273.435 121.942C273.549 122.974 273.664 124.399 273.788 126.173C273.912 127.943 273.987 129.962 274.113 132.176C274.243 134.439 274.321 136.706 274.447 138.969C274.526 141.285 274.607 143.448 274.682 145.467C274.71 147.534 274.78 149.256 274.799 150.635C274.805 151.08 274.762 151.473 274.767 151.866L274.78 152.851L262.815 153.011ZM268.243 120.283C266.42 120.307 265.085 119.98 264.19 119.303C263.296 118.625 262.837 117.598 262.82 116.315C262.803 115.033 263.234 113.993 264.109 113.196C264.985 112.447 266.31 112.032 268.133 112.008C270.053 111.983 271.436 112.357 272.284 113.087C273.084 113.866 273.538 114.894 273.555 116.172C273.572 117.45 273.141 118.494 272.365 119.194C271.537 119.894 270.163 120.257 268.243 120.283ZM276.028 152.835C275.978 149.092 275.928 145.302 275.924 141.458C275.874 137.667 275.874 134.073 275.882 130.722C275.885 127.371 275.898 124.417 275.913 121.904L283.843 121.799C283.964 123.324 284.121 124.356 284.377 124.894C284.629 125.431 285.029 125.675 285.618 125.667C286.111 125.66 286.553 125.458 287.035 124.959C287.522 124.507 288.056 123.959 288.641 123.362C289.222 122.765 289.957 122.21 290.787 121.706C291.619 121.25 292.65 120.992 293.88 120.976C295.555 120.954 297.039 121.326 298.231 122.1C299.424 122.874 300.376 124.24 301.094 126.102C301.76 127.965 302.14 130.569 302.183 133.823C302.216 136.335 302.2 138.748 302.232 141.112C302.215 143.477 302.191 145.594 302.217 147.565C302.196 149.537 302.217 151.16 302.235 152.491L291.055 152.639L290.937 136.237C290.912 134.317 290.257 133.34 289.027 133.357C287.797 133.373 287.121 134.368 287.147 136.287L287.413 152.688L276.037 152.839L276.028 152.835ZM311.154 155.914C308.594 155.948 306.616 155.482 305.223 154.418C303.831 153.403 303.122 151.933 303.096 150.014C303.055 146.913 304.303 144.283 306.835 142.133C307.029 141.934 307.175 141.784 307.273 141.586C307.319 141.437 307.369 141.288 307.367 141.092C307.365 140.992 307.315 140.848 307.213 140.701C307.111 140.602 307.061 140.459 306.964 140.312C305.916 139.292 305.11 138.073 304.503 136.702C303.896 135.331 303.627 133.808 303.605 132.181C303.576 129.965 304.043 128.039 305.103 126.398C306.115 124.757 307.577 123.459 309.484 122.548C311.392 121.637 313.602 121.163 316.162 121.129C317.297 121.114 318.183 121.15 318.773 121.242C319.363 121.335 319.909 121.376 320.45 121.368C321.039 121.361 321.675 120.959 322.258 120.162C322.836 119.365 323.709 118.075 324.815 116.284L330.442 120.838C329.717 121.734 329.038 122.484 328.406 123.182C327.774 123.88 327.484 124.425 327.49 124.87C327.495 125.262 327.6 125.605 327.849 125.947C328.098 126.288 328.4 126.729 328.704 127.218C329.007 127.707 329.308 128.392 329.567 129.179C329.775 130.014 329.937 131.045 329.954 132.328C329.995 135.429 328.995 137.955 326.953 139.955C324.912 141.954 321.675 142.93 317.243 142.989C315.271 143.016 313.948 143.23 313.162 143.537C312.377 143.892 311.991 144.39 311.999 144.979C312.009 145.716 312.554 146.053 313.641 146.039C314.229 146.031 315.215 146.018 316.592 145.899C317.921 145.781 319.399 145.666 321.068 145.543C322.738 145.421 324.364 145.351 325.99 145.233C327.615 145.111 329.041 145.044 330.271 145.028L330.413 155.667L311.159 155.923L311.154 155.914ZM317.111 129.829C316.422 129.838 315.832 130.09 315.349 130.493C314.862 130.945 314.673 131.488 314.682 132.13C314.691 132.819 314.894 133.357 315.345 133.796C315.796 134.235 316.387 134.424 317.125 134.414C317.814 134.405 318.404 134.2 318.839 133.75C319.278 133.299 319.515 132.755 319.506 132.065C319.497 131.424 319.246 130.887 318.795 130.448C318.345 130.061 317.801 129.819 317.111 129.829Z" fill="black" stroke="black" stroke-width="2" mask="url(#path-29-inside-1_21_868)"/>
<path d="M119.937 154.407L109.76 154.543L109.628 137.662L109.628 137.659C109.615 136.657 109.441 135.819 109.043 135.221C108.622 134.588 107.986 134.275 107.212 134.285C106.44 134.296 105.803 134.623 105.387 135.263C104.99 135.871 104.824 136.715 104.838 137.723L104.838 137.724L105.109 154.605L94.7343 154.743C94.6564 148.886 94.5776 142.756 94.591 136.436C94.5973 134.708 94.5985 132.9 94.5997 131.105L94.5999 130.872C94.6005 129.968 93.856 129.24 92.948 129.27C92.1892 129.294 91.1511 129.325 90.0962 129.339C89.1388 129.351 88.4368 129.573 87.9335 129.96L87.9314 129.962C87.3706 130.397 87.206 131.024 87.215 131.701C87.2244 132.409 87.2887 133.556 87.4585 135.135C87.5331 136.103 87.6273 137.167 87.7295 138.32C87.7934 139.043 87.8605 139.801 87.9279 140.592C88.0861 142.491 88.2419 144.467 88.4011 146.486C88.4192 146.716 88.4374 146.947 88.4556 147.178C88.5861 149.441 88.71 151.594 88.7373 153.647L88.7529 154.822L76.2611 154.988L76.2455 153.813C76.2181 151.753 76.2372 149.596 76.3547 147.344L76.3548 147.344L76.3551 147.333C76.4251 145.075 76.5436 142.863 76.6593 140.741C76.78 138.675 76.9037 136.854 77.0307 135.282L77.0313 135.274L77.0317 135.267C77.0534 134.835 77.0755 134.434 77.0959 134.063C77.1489 133.1 77.1902 132.347 77.1834 131.834C77.1739 131.119 76.9213 130.518 76.3729 130.115L76.3708 130.114C75.86 129.743 75.1539 129.538 74.2403 129.55C73.7896 129.556 73.3403 129.574 72.9105 129.592L72.8769 129.593C72.4566 129.61 72.0568 129.627 71.6804 129.632L70.1608 129.652L70.0117 118.443L92.2509 118.147C95.7254 118.1 98.944 117.647 101.292 117.205C102.467 116.985 103.425 116.766 104.092 116.603C104.24 116.567 104.374 116.533 104.492 116.503C104.491 116.551 104.49 116.6 104.489 116.651C104.488 116.699 104.487 116.749 104.486 116.8C104.478 117.168 104.47 117.59 104.476 118.061C104.441 119.04 104.407 120.078 104.421 121.165C104.388 122.307 104.403 123.394 104.417 124.422L104.417 124.426C104.422 124.854 104.491 125.267 104.703 125.583C104.943 125.94 105.312 126.096 105.724 126.091C106.163 126.085 106.703 125.874 107.32 125.447C107.823 125.118 108.478 124.778 109.291 124.431C110.056 124.104 110.974 123.905 112.099 123.89C113.697 123.869 115.075 124.225 116.168 124.934C117.238 125.628 118.141 126.885 118.834 128.69C119.473 130.48 119.849 133.02 119.892 136.24C119.908 137.493 119.912 138.721 119.915 139.935L119.915 139.991C119.918 141.182 119.921 142.359 119.936 143.524C119.934 143.763 119.933 144 119.931 144.234C119.916 146.31 119.902 148.201 119.926 149.976C119.907 151.711 119.921 153.176 119.937 154.407Z" fill="black" stroke="black"/>
</svg>
